<svg width="190" height="57" viewBox="0 0 190 57" fill="none" xmlns="http://www.w3.org/2000/svg">
<path d="M65.7898 48.9198C65.7898 50.1998 66.7998 50.9098 68.4598 52.0998C69.1998 52.6398 70.4198 53.5198 70.4198 54.5698C70.4198 55.6198 69.6398 56.1898 68.3898 56.1898C66.8998 56.1898 65.8598 55.3098 65.5898 55.1098L66.2299 56.2598C66.8699 56.5698 67.6798 56.7298 68.3898 56.7298C69.5698 56.7298 71.6998 56.2898 71.6998 54.1598C71.6998 52.6698 70.6198 51.8598 68.8598 50.6498C68.0498 50.0798 66.9298 49.4998 66.9298 48.5498C66.9298 47.7398 67.6698 47.2698 68.6898 47.2698C69.7098 47.2698 70.5198 47.7398 70.6798 47.8798L70.1698 46.9998C69.8298 46.8298 69.0898 46.7598 68.6798 46.7598C67.3598 46.7598 65.7698 47.3298 65.7698 48.9198" fill="white"/>
<path d="M75.3197 51.9003C75.3197 49.3703 76.5397 47.6103 78.3597 47.6103C80.1797 47.6103 81.4397 49.3703 81.4397 51.9003C81.4397 54.4303 80.1897 56.1903 78.3597 56.1903C76.5297 56.1903 75.3197 54.4303 75.3197 51.9003ZM73.9297 51.9003C73.9297 54.7403 75.8497 56.7303 78.3597 56.7303C80.8697 56.7303 82.7897 54.7403 82.7897 51.9003C82.7897 49.0603 80.8597 47.0703 78.3597 47.0703C75.8597 47.0703 73.9297 49.1303 73.9297 51.9003Z" fill="white"/>
<path d="M120.329 51.7297C120.329 49.2297 121.549 47.4397 123.369 47.4397C125.189 47.4397 126.449 49.2297 126.449 51.7297C126.449 54.2297 125.199 56.0197 123.369 56.0197C121.539 56.0197 120.329 54.2597 120.329 51.7297ZM118.949 51.7297C118.949 54.5697 120.869 56.5597 123.369 56.5597C125.869 56.5597 127.799 54.5697 127.799 51.7297C127.799 48.8897 125.869 46.9297 123.369 46.9297C120.869 46.9297 118.949 48.9597 118.949 51.7297Z" fill="white"/>
<path d="M137.841 54.2301L135.231 51.3901L131.051 46.8301V56.3901H131.521V49.2601L138.311 56.6301V47.0601H137.841V54.2301Z" fill="white"/>
<path d="M141.66 56.3905H147.03V55.9205H142.97V51.8605H146.35V51.3905H142.97V47.5405H147.03V47.0605H141.66V56.3905Z" fill="white"/>
<path d="M87.2094 47.7405H87.9494C89.2294 47.7405 89.6394 48.3805 89.6394 49.3305C89.6394 49.4605 89.7394 51.0205 88.4894 51.2905C88.8294 51.3905 89.3994 51.5605 89.9094 52.0305C90.4194 52.4405 90.6494 53.0805 90.6494 53.8205C90.6494 55.1405 89.9094 56.0205 88.3194 56.0205H87.1994V47.7405H87.2094ZM85.8594 47.2305V56.5605H88.4294C90.3894 56.5605 92.0794 55.7505 92.0794 53.9605C92.0794 52.5405 91.0294 51.5605 89.4794 51.2605C90.3594 50.9505 90.9294 50.3505 90.9294 49.3705C90.9294 47.8805 89.5794 47.2405 87.8194 47.2405H85.8594V47.2305Z" fill="white"/>
<path d="M107.489 53.2793L109.079 49.4293L110.669 53.2793H107.489ZM105.629 56.5593H106.169L107.279 53.8193H110.859L111.969 56.5593H113.419L109.499 47.0293L105.609 56.5593H105.629Z" fill="white"/>
<path d="M101.61 51.0505H96.6098V47.2305H95.2598V56.5605H96.6098V51.5905H101.61V56.5605H103V47.2305H101.61V51.0505Z" fill="white"/>
<path d="M45.4095 53.2793L46.9995 49.4293L48.5895 53.2793H45.4095ZM43.5195 56.5593H44.0595L45.1795 53.8193H48.7995L49.9195 56.5593H51.3695L47.4495 47.0293L43.5295 56.5593H43.5195Z" fill="white"/>
<path d="M52.4609 47.6899H55.3909V56.5499H56.7609V51.5799V51.0599V47.6899H59.6809V47.1699H52.4609V47.6899Z" fill="white"/>
<path d="M67.0302 27.3601H73.7702V25.8001H67.0302V17.4601H76.9902V16.3301H64.4902V35.1801H77.3202V34.0301H67.0302V27.3601Z" fill="white"/>
<path d="M169.73 16.3301V32.4601C169.29 31.5701 168.8 30.7201 168.24 29.9201L158.28 16.3301H155.9V35.1801H157.11V18.4301C157.73 19.6801 158.52 20.9101 159.43 22.1601L169.05 35.1901H170.92V16.3401H169.73V16.3301Z" fill="white"/>
<path d="M174.789 16.3301V17.4601H181.039V35.1801H183.579V17.4601H189.669V16.3301H174.789Z" fill="white"/>
<path d="M110.31 34.0391H97.5898V35.1791H110.31V34.0391Z" fill="white"/>
<path d="M110.31 16.3301H97.5898V17.4701H110.31V16.3301Z" fill="white"/>
<path d="M106.86 25.8008H97.5898V27.3508H106.86V25.8008Z" fill="white"/>
<path d="M134.71 16.3301H133.54L124.4 32.1801L115.07 16.3501H114H113.99V35.3101H115.06V22.1701H115.07L123.11 35.1801H123.84L124.02 34.8601L125.19 32.8401L132.16 20.7401V35.1801H134.93V16.3501H134.71V16.3301Z" fill="white"/>
<path d="M0.880859 17.4601H7.15086V35.1801H9.67086V17.4601H15.7609V16.3301H0.880859V17.4601Z" fill="white"/>
<path d="M32.4794 25.9201H22.1694V16.3301H19.6094V35.1801H22.1694V27.0101H32.4794V35.1801H35.0394V16.3301H32.4794V25.9201Z" fill="white"/>
<path d="M43.5791 27.3601H50.3191V25.8001H43.5791V17.4601H53.5491V16.3301H41.0391V35.1801H53.8691V34.0301H43.5791V27.3601Z" fill="white"/>
<path d="M84.2905 16.3301H81.7305V35.1801H93.9105V34.0301H84.2905V16.3301Z" fill="white"/>
<path d="M141.159 27.3601H147.889V25.8001H141.159V17.4601H151.119V16.3301H138.619V35.1801H151.419V34.0301H141.159V27.3601Z" fill="white"/>
<path d="M107.94 0.230469H97.5898V1.37047H107.94V0.230469Z" fill="white"/>
<path d="M104.26 8.07031H97.5898V9.62031H104.26V8.07031Z" fill="white"/>
</svg>
