<svg width="52" height="95" viewBox="0 0 52 95" fill="none" xmlns="http://www.w3.org/2000/svg">
<g clip-path="url(#clip0_101_2336)">
<path d="M49.5434 31.9745L36.5644 15.5635C34.3525 12.7827 31.1643 10.949 27.6484 10.4355V1.9725C27.6484 1.44936 27.4406 0.947647 27.0707 0.577732C26.7007 0.207816 26.199 0 25.6759 0C25.1528 0 24.651 0.207816 24.2811 0.577732C23.9112 0.947647 23.7034 1.44936 23.7034 1.9725V10.4345C20.1845 10.9264 16.9938 12.7648 14.8034 15.5625L1.7904 31.9945C0.658962 33.4352 0.0412708 35.2126 0.0354004 37.0445V86.3365C0.0441365 88.4785 0.902952 90.5294 2.42311 92.0385C3.94327 93.5476 6.00039 94.3914 8.1424 94.3845H43.1544C45.2962 94.4016 47.3572 93.5677 48.8846 92.0662C50.4119 90.5647 51.2809 88.5183 51.3004 86.3765V37.0435C51.2907 35.2061 50.6729 33.4237 49.5434 31.9745ZM25.6764 29.6665C26.8117 29.6665 27.9214 30.0031 28.8654 30.6339C29.8093 31.2646 30.545 32.161 30.9795 33.2099C31.4139 34.2587 31.5276 35.4129 31.3061 36.5263C31.0846 37.6398 30.538 38.6625 29.7352 39.4653C28.9324 40.268 27.9097 40.8147 26.7962 41.0362C25.6828 41.2577 24.5286 41.144 23.4798 40.7096C22.431 40.2751 21.5345 39.5394 20.9038 38.5955C20.273 37.6515 19.9364 36.5418 19.9364 35.4065C19.9355 34.6525 20.0833 33.9056 20.3715 33.2088C20.6596 32.512 21.0824 31.8788 21.6156 31.3457C22.1487 30.8125 22.7819 30.3897 23.4787 30.1016C24.1755 29.8134 24.9223 29.6656 25.6764 29.6665ZM47.3764 86.3355C47.372 86.8811 47.2596 87.4205 47.0457 87.9224C46.8319 88.4244 46.5207 88.8791 46.1303 89.2602C45.7398 89.6414 45.2778 89.9414 44.7708 90.1432C44.2639 90.3449 43.722 90.4442 43.1764 90.4355H8.1804C7.63483 90.4442 7.09294 90.3449 6.58596 90.1432C6.07898 89.9414 5.61695 89.6414 5.22651 89.2602C4.83607 88.8791 4.52494 88.4244 4.31107 87.9224C4.0972 87.4205 3.98482 86.8811 3.9804 86.3355V37.0435C3.97713 36.0987 4.29718 35.1812 4.8874 34.4435L17.8874 18.0125C19.3419 16.1696 21.4045 14.9042 23.7064 14.4425V25.9225C21.3581 26.4107 19.2742 27.7524 17.8578 29.6882C16.4415 31.6239 15.7934 34.0161 16.0387 36.4021C16.2841 38.7881 17.4056 40.9983 19.1863 42.6052C20.967 44.2121 23.2803 45.1016 25.6789 45.1016C28.0775 45.1016 30.3908 44.2121 32.1715 42.6052C33.9522 40.9983 35.0737 38.7881 35.319 36.4021C35.5644 34.0161 34.9163 31.6239 33.5 29.6882C32.0836 27.7524 29.9997 26.4107 27.6514 25.9225V14.4395C28.4635 14.604 29.2519 14.869 29.9984 15.2285C31.3457 15.8808 32.5263 16.8319 33.4504 18.0095L46.4664 34.4205C47.0548 35.1681 47.3743 36.0921 47.3734 37.0435L47.3764 86.3355Z" fill="#C9A485"/>
<path d="M31.9694 71.9364C31.5466 70.5986 30.7089 69.4302 29.5777 68.6003C28.4465 67.7703 27.0804 67.3221 25.6774 67.3204C25.1547 67.3204 24.6437 67.1654 24.209 66.875C23.7744 66.5846 23.4356 66.1718 23.2356 65.6888C23.0355 65.2059 22.9832 64.6745 23.0852 64.1618C23.1872 63.6491 23.4389 63.1782 23.8085 62.8085C24.1781 62.4389 24.6491 62.1872 25.1618 62.0852C25.6745 61.9832 26.2059 62.0356 26.6888 62.2356C27.1718 62.4356 27.5845 62.7744 27.875 63.209C28.1654 63.6437 28.3204 64.1547 28.3204 64.6774C28.3204 65.2005 28.5282 65.7023 28.8981 66.0722C29.268 66.4421 29.7697 66.6499 30.2929 66.6499C30.816 66.6499 31.3177 66.4421 31.6877 66.0722C32.0576 65.7023 32.2654 65.2005 32.2654 64.6774C32.2637 63.2744 31.8155 61.9083 30.9856 60.7771C30.1557 59.6459 28.9872 58.8082 27.6494 58.3854V57.5174C27.6553 57.2546 27.6087 56.9933 27.5122 56.7488C27.4157 56.5043 27.2714 56.2816 27.0876 56.0937C26.9039 55.9057 26.6844 55.7564 26.4422 55.6544C26.1999 55.5525 25.9397 55.5 25.6769 55.5C25.4141 55.5 25.1539 55.5525 24.9116 55.6544C24.6693 55.7564 24.4499 55.9057 24.2662 56.0937C24.0824 56.2816 23.9381 56.5043 23.8416 56.7488C23.7451 56.9933 23.6985 57.2546 23.7044 57.5174V58.3854C22.2001 58.8555 20.9141 59.8491 20.0796 61.1861C19.2452 62.5231 18.9175 64.1149 19.156 65.6728C19.3945 67.2306 20.1834 68.6514 21.3797 69.6775C22.576 70.7036 24.1004 71.2669 25.6764 71.2654C26.1991 71.2654 26.7101 71.4204 27.1448 71.7108C27.5794 72.0012 27.9182 72.414 28.1182 72.897C28.3182 73.3799 28.3706 73.9114 28.2686 74.424C28.1666 74.9367 27.9149 75.4077 27.5453 75.7773C27.1756 76.1469 26.7047 76.3986 26.192 76.5006C25.6793 76.6026 25.1479 76.5503 24.665 76.3502C24.182 76.1502 23.7692 75.8114 23.4788 75.3768C23.1884 74.9421 23.0334 74.4312 23.0334 73.9084C23.0334 73.3853 22.8256 72.8836 22.4557 72.5136C22.0857 72.1437 21.584 71.9359 21.0609 71.9359C20.5378 71.9359 20.036 72.1437 19.6661 72.5136C19.2962 72.8836 19.0884 73.3853 19.0884 73.9084C19.0899 75.3115 19.5381 76.6776 20.368 77.8088C21.198 78.9401 22.3665 79.7778 23.7044 80.2004V81.1864C23.716 81.7019 23.9289 82.1923 24.2976 82.5527C24.6662 82.9132 25.1613 83.115 25.6769 83.115C26.1925 83.115 26.6876 82.9132 27.0562 82.5527C27.4249 82.1923 27.6378 81.7019 27.6494 81.1864V80.2004C29.3172 79.676 30.7087 78.5113 31.5186 76.9619C32.3286 75.4126 32.4907 73.6052 31.9694 71.9364Z" fill="#C9A485"/>
</g>
<defs>
<clipPath id="clip0_101_2336">
<rect width="51.265" height="94.384" fill="white" transform="translate(0.0344238)"/>
</clipPath>
</defs>
</svg>
